PathFileType	4	(X/Y/Z)	c:/Users/goper/Files/vsCode/490R/osim_files/A01/A01_PWS_02.trc
DataRate	CameraRate	NumFrames	NumMarkers	Units                	OrigDataRate	OrigDataStartFrame	OrigNumFrames
120.00	120.00	5	36	mm	120.0	537	1431
                Frame#	Time	Mobility_markerset:LPSIS			Mobility_markerset:LASIS			Mobility_markerset:LTH1			Mobility_markerset:LTH2			Mobility_markerset:LTH3			Mobility_markerset:LTH4			Mobility_markerset:LLFE			Mobility_markerset:LMFE			Mobility_markerset:LSH1			Mobility_markerset:LSH2			Mobility_markerset:LSH3			Mobility_markerset:LSH4			Mobility_markerset:LLMAL			Mobility_markerset:LMMAL			Mobility_markerset:LCAL			Mobility_markerset:LMTP5			Mobility_markerset:LTOE			Mobility_markerset:LMTP1			Mobility_markerset:RPSIS			Mobility_markerset:RASIS			Mobility_markerset:RTH1			Mobility_markerset:RTH2			Mobility_markerset:RTH3			Mobility_markerset:RTH4			Mobility_markerset:RLFE			Mobility_markerset:RMFE			Mobility_markerset:RSH1			Mobility_markerset:RSH2			Mobility_markerset:RSH3			Mobility_markerset:RSH4			Mobility_markerset:RLMAL			Mobility_markerset:RMMAL			Mobility_markerset:RCAL			Mobility_markerset:RMTP1			Mobility_markerset:RTOE			Mobility_markerset:RMTP5		
		X1	Y1	Z1	X2	Y2	Z2	X3	Y3	Z3	X4	Y4	Z4	X5	Y5	Z5	X6	Y6	Z6	X7	Y7	Z7	X8	Y8	Z8	X9	Y9	Z9	X10	Y10	Z10	X11	Y11	Z11	X12	Y12	Z12	X13	Y13	Z13	X14	Y14	Z14	X15	Y15	Z15	X16	Y16	Z16	X17	Y17	Z17	X18	Y18	Z18	X19	Y19	Z19	X20	Y20	Z20	X21	Y21	Z21	X22	Y22	Z22	X23	Y23	Z23	X24	Y24	Z24	X25	Y25	Z25	X26	Y26	Z26	X27	Y27	Z27	X28	Y28	Z28	X29	Y29	Z29	X30	Y30	Z30	X31	Y31	Z31	X32	Y32	Z32	X33	Y33	Z33	X34	Y34	Z34	X35	Y35	Z35	X36	Y36	Z36

537	4.46667	684.46234	1051.79053	348.22827	447.09772	1018.51349	444.80811	583.80066	694.25842	489.25085	579.45868	648.12775	480.28137	524.20709	695.25470	491.00351	527.86536	650.64484	477.61957	553.58752	530.79779	441.99969	542.83740	539.43695	302.50101	631.37299	381.45840	428.26447	643.75159	335.69061	428.91806	573.05865	361.42380	423.64145	593.23688	320.27762	423.63104	691.57660	94.97184	401.89706	705.33759	96.01650	317.91891	776.40295	74.31417	363.58981	557.05151	33.20974	411.74933	532.86810	53.39158	343.25082	549.95386	44.73086	309.65674	681.82477	1040.89795	247.36050	448.74295	1001.78345	183.45737	453.71481	675.53357	107.65514	428.13562	640.41913	115.64309	398.86240	706.46478	113.00869	382.85620	667.06525	117.93955	341.40152	527.86420	158.19304	340.35468	541.05377	278.32147	440.40506	331.63486	142.02827	438.90530	286.73608	140.43279	381.01236	329.38589	134.86383	385.27219	283.05087	136.02184	421.95734	105.47723	162.71756	387.00116	122.55061	244.67274	469.14615	77.58157	218.00215	260.92160	55.68307	231.02519	232.59906	74.68803	182.27388	292.85248	44.03497	124.21575
538	4.47500	675.15381	1051.53723	345.74786	438.84930	1017.16736	445.31741	577.85687	693.84436	488.75394	573.87268	647.66608	479.83542	518.32172	694.42725	490.65497	522.23865	649.80341	477.31375	548.89685	530.05585	441.74301	537.85199	538.35992	302.31375	628.28021	381.57135	427.61984	640.90503	335.80890	428.73080	569.91766	360.85300	423.46545	590.51227	319.80197	423.41809	691.06024	95.37427	401.91980	704.87048	96.53380	317.67493	775.85297	75.15059	363.51007	556.97693	33.14676	411.81586	532.86517	53.25539	343.23190	549.94067	44.76047	309.56952	671.55902	1040.37634	245.05547	437.75522	1000.82330	183.63942	444.36877	674.55841	107.35001	419.02997	639.23193	115.22401	0.00000	0.00000	0.00000	373.72433	665.61047	118.07909	331.89542	526.91675	157.26619	333.13303	538.63922	278.39719	421.08673	325.97287	140.05368	416.50287	282.07993	138.93320	358.92361	326.11597	135.26778	362.63397	281.38458	134.96153	389.61966	102.09812	161.46910	356.87906	120.26124	243.80394	435.60730	71.69021	216.41028	226.44048	60.39755	231.05862	198.89568	80.77090	182.54387	256.97055	46.83566	124.13252
539	4.48333	665.70239	1050.94336	343.34384	430.67703	1015.91956	445.74405	571.93799	693.39008	488.20511	568.68823	647.20251	479.37561	512.41162	693.47900	490.25958	516.67896	648.82941	476.96771	544.13080	529.24292	441.43542	533.17151	537.12634	302.15204	625.02448	381.52551	427.31393	638.11145	335.92346	428.44614	566.65839	360.25452	423.56424	587.85675	319.39938	423.26099	690.65155	95.85971	402.03720	704.42816	97.19794	317.28824	775.47180	76.14008	363.36981	556.82080	33.04637	411.84869	532.85272	53.11254	343.20660	549.81976	44.72824	309.54953	661.05481	1039.75696	242.70918	426.65637	999.64270	184.07866	435.39767	673.32245	106.92228	410.34909	637.61896	114.68926	379.75040	702.76172	113.18687	364.95700	663.69476	117.89335	322.57254	525.63281	156.02687	325.60980	535.62952	278.60672	401.18051	322.06052	138.65356	394.32748	278.00305	137.47084	339.56369	325.13458	134.44719	340.55652	280.29211	133.97864	358.36649	99.49310	161.32274	326.83325	119.78321	243.01431	402.56909	66.95474	215.04790	193.21539	66.74689	231.51244	166.33597	88.36672	183.12157	222.41026	51.25806	124.15797
540	4.49167	655.96460	1050.46057	340.72009	422.44208	1014.64899	445.95129	565.99469	692.84924	487.58685	562.72003	646.59064	478.84253	506.48392	692.42889	489.75250	511.07675	647.78302	476.52164	539.25415	528.28949	441.02786	527.93243	536.21832	301.62302	621.51050	381.30289	427.41550	635.25836	335.98328	428.12115	563.75983	359.50653	423.06760	585.17981	319.04855	423.02274	690.12152	96.33365	402.11044	703.90674	97.43735	317.14539	775.03699	76.97034	363.26102	556.64105	32.89462	411.95865	532.75623	52.86086	343.17993	549.67780	44.68420	309.54587	650.37305	1039.02759	240.30676	415.38544	998.23480	184.32858	426.57346	671.60260	106.09692	401.99628	635.68420	113.77502	371.15051	701.01495	112.97061	356.64496	661.51086	117.56096	313.19592	524.11176	154.61197	318.39398	532.45819	278.50882	381.32416	318.65750	137.54535	372.48007	274.64377	136.16339	320.26132	324.52774	133.70628	318.88803	279.71899	133.04337	326.68359	97.63960	160.03520	297.57254	120.21646	242.52281	370.29443	63.24930	214.03825	161.39603	74.33642	232.14366	135.19618	97.41045	183.77499	188.14320	56.71779	124.78756
541	4.50000	646.14868	1049.77100	338.07773	413.82706	1013.19714	446.15106	559.96277	692.15326	486.89963	557.10785	645.86176	478.26129	500.53680	691.25836	489.18481	505.46320	646.55762	476.02087	534.53882	527.31830	440.63901	523.00598	534.97461	301.17563	618.35101	381.28418	426.67825	632.36481	335.92300	427.82132	560.68231	358.67313	422.84076	582.54639	318.47040	422.81125	689.63745	96.66507	402.18579	703.38428	97.87254	316.89810	774.68475	77.82359	363.20325	556.71063	32.86368	411.96875	532.79681	52.76897	343.13495	549.57373	44.59735	309.55936	639.57367	1038.23071	237.81294	404.02512	996.52795	184.77324	418.09180	669.50153	105.07069	395.22726	634.93097	112.63655	0.00000	0.00000	0.00000	348.01535	658.70630	116.21007	303.82547	522.54950	153.00188	311.43378	529.27234	278.03946	361.93457	315.56549	136.27342	350.93030	272.01202	134.96457	301.19250	324.31195	132.85393	297.69958	279.61877	132.40344	296.64828	97.17046	159.70197	269.46533	121.60087	242.24825	338.63824	60.40802	213.43773	130.83435	82.66588	233.11935	105.66795	106.88159	184.76524	155.64423	63.34869	125.47324
